<svg width="1576" height="1576" viewBox="0 0 1576 1576" fill="none" xmlns="http://www.w3.org/2000/svg">
<rect x="201.5" y="221.883" width="1130.12" height="1130.12" rx="44.5" fill="white" stroke="#407B6F" stroke-width="11"/>
<path d="M246 216.883H1287.12C1314.46 216.884 1336.62 239.045 1336.62 266.383V471.63H196.5V266.383L196.504 265.744C196.846 238.7 218.875 216.883 246 216.883Z" fill="#407B6F" stroke="#407B6F"/>
<path d="M1167.52 465.931L1201.48 151.865C1149.92 221.112 1122.01 329.9 1114.5 375.639C1106.99 421.377 1167.52 465.931 1167.52 465.931Z" fill="#E7B40E"/>
<path d="M1166.24 465.792L1200.2 151.726C1235.77 230.394 1239.77 342.633 1237.33 388.92C1234.89 435.206 1166.24 465.792 1166.24 465.792Z" fill="#E7B40E"/>
<path d="M1010.68 399.004C1010.68 399.004 1104.4 409.137 1186.02 613.987C1186.02 613.987 1164.86 645.16 1144.37 655.606C1091.97 583.318 1009 544.879 1009 544.879L1010.68 399.004Z" fill="#E7B40E"/>
<path d="M1339.09 430.674C1272.04 446.482 1212.48 475.917 1172.68 524.14C1172.68 524.14 1179.08 547.899 1206.26 604.647C1283.54 577.13 1309.55 573.537 1309.55 573.537C1309.55 573.537 1343.2 487.49 1339.09 430.674Z" fill="#E7B40E"/>
<path d="M1321.29 595.301C1254.23 611.109 1194.68 640.544 1154.88 688.767C1154.88 688.767 1161.28 712.526 1188.45 769.274C1265.74 741.757 1291.75 738.164 1291.75 738.164C1291.75 738.164 1325.39 652.117 1321.29 595.301Z" fill="#E7B40E"/>
<path d="M1303.49 759.928C1236.43 775.737 1176.88 805.172 1137.08 853.394C1137.08 853.394 1143.48 877.153 1170.65 933.902C1247.94 906.385 1273.95 902.791 1273.95 902.791C1273.95 902.791 1307.59 816.745 1303.49 759.928Z" fill="#E7B40E"/>
<path d="M993.293 559.837C993.293 559.837 1087.01 569.971 1168.63 774.82C1168.63 774.82 1147.47 805.993 1126.98 816.44C1074.58 744.151 991.613 705.713 991.613 705.713L993.293 559.837Z" fill="#E7B40E"/>
<path d="M975.898 720.666C975.898 720.666 1069.61 730.799 1151.24 935.649C1151.24 935.649 1130.07 966.822 1109.59 977.268C1057.18 904.98 974.218 866.541 974.218 866.541L975.898 720.666Z" fill="#E7B40E"/>
<path d="M1095.75 1152.58C988.035 1138.86 974.761 1003.69 970.108 904.531C1027.86 910.775 1081.7 982.365 1101.4 1017.38C1114.75 990.419 1233.69 895.879 1277.84 937.806C1277.84 937.806 1220.34 1185.27 1095.75 1152.58Z" fill="#E7B40E"/>
<ellipse cx="1073.85" cy="1307.8" rx="15.2853" ry="117.187" transform="rotate(6.17129 1073.85 1307.8)" fill="#E7B40E"/>
<path d="M1028.05 1138.85C989.035 1120.54 932.277 1064.86 919.18 1043.8C917.809 1151.27 999.792 1206.69 1045.23 1240.64C1062.7 1217.34 1064.55 1155.98 1028.05 1138.85Z" fill="#E7B40E"/>
<path d="M1154.86 1152.56C1196.89 1143.02 1264.24 1100.76 1281.54 1082.98C1259.9 1188.27 1167.97 1224.87 1116.32 1248.33C1104.24 1221.83 1115.55 1161.5 1154.86 1152.56Z" fill="#E7B40E"/>
<path d="M283.458 317.197V291.424H385.859V317.197H350.421V409.242H318.896V317.197H283.458ZM397.896 409.242V291.424H448.752C457.496 291.424 465.147 293.016 471.705 296.199C478.264 299.382 483.365 303.965 487.008 309.948C490.651 315.931 492.473 323.103 492.473 331.464C492.473 339.901 490.594 347.016 486.835 352.807C483.115 358.598 477.88 362.97 471.13 365.923C464.419 368.876 456.575 370.353 447.601 370.353H417.226V345.501H441.158C444.916 345.501 448.119 345.04 450.765 344.12C453.45 343.161 455.502 341.646 456.921 339.575C458.378 337.504 459.107 334.8 459.107 331.464C459.107 328.089 458.378 325.347 456.921 323.237C455.502 321.089 453.45 319.517 450.765 318.52C448.119 317.484 444.916 316.967 441.158 316.967H429.882V409.242H397.896ZM466.931 355.165L496.385 409.242H461.638L432.874 355.165H466.931ZM536.713 409.242H502.195L541.085 291.424H584.806L623.695 409.242H589.178L563.406 323.87H562.485L536.713 409.242ZM530.269 362.759H595.161V386.691H530.269V362.759ZM739.5 335.606H707.054C706.824 332.921 706.21 330.486 705.213 328.3C704.254 326.114 702.912 324.234 701.186 322.662C699.499 321.051 697.447 319.824 695.031 318.98C692.615 318.098 689.872 317.657 686.804 317.657C681.435 317.657 676.89 318.961 673.17 321.569C669.488 324.177 666.688 327.916 664.771 332.787C662.892 337.658 661.952 343.506 661.952 350.333C661.952 357.543 662.911 363.584 664.828 368.454C666.784 373.287 669.603 376.93 673.285 379.385C676.967 381.801 681.396 383.009 686.574 383.009C689.527 383.009 692.173 382.645 694.513 381.916C696.852 381.149 698.885 380.056 700.611 378.637C702.337 377.218 703.737 375.511 704.811 373.517C705.923 371.484 706.671 369.202 707.054 366.671L739.5 366.901C739.117 371.887 737.717 376.969 735.301 382.146C732.884 387.285 729.452 392.041 725.003 396.413C720.593 400.747 715.127 404.237 708.607 406.883C702.088 409.53 694.513 410.853 685.884 410.853C675.068 410.853 665.365 408.533 656.774 403.892C648.222 399.251 641.453 392.425 636.467 383.412C631.519 374.399 629.046 363.373 629.046 350.333C629.046 337.217 631.577 326.171 636.639 317.197C641.702 308.184 648.529 301.376 657.119 296.774C665.71 292.133 675.298 289.813 685.884 289.813C693.324 289.813 700.17 290.829 706.421 292.862C712.673 294.895 718.157 297.867 722.874 301.779C727.592 305.653 731.389 310.427 734.265 316.104C737.142 321.78 738.887 328.28 739.5 335.606ZM754.012 409.242V291.424H785.998V339.057H787.608L823.046 291.424H860.324L820.515 343.89L861.245 409.242H823.046L796.583 365.06L785.998 378.867V409.242H754.012Z" fill="white"/>
<rect x="284.586" y="547.733" width="105.838" height="105.838" rx="14.5" fill="#407B6F" stroke="#407B6F" stroke-width="11"/>
<rect x="449.457" y="547.733" width="105.838" height="105.838" rx="14.5" fill="#407B6F" stroke="#407B6F" stroke-width="11"/>
<rect x="614.328" y="547.733" width="105.838" height="105.838" rx="14.5" fill="#407B6F" stroke="#407B6F" stroke-width="11"/>
<rect x="779.199" y="547.733" width="105.838" height="105.838" rx="14.5" fill="#407B6F" stroke="#407B6F" stroke-width="11"/>
<rect x="284.586" y="695.728" width="105.838" height="105.838" rx="14.5" fill="#407B6F" stroke="#407B6F" stroke-width="11"/>
<rect x="284.586" y="843.723" width="105.838" height="105.838" rx="14.5" fill="#407B6F" stroke="#407B6F" stroke-width="11"/>
<rect x="284.586" y="991.718" width="105.838" height="105.838" rx="14.5" fill="#407B6F" stroke="#407B6F" stroke-width="11"/>
<rect x="284.586" y="1139.71" width="105.838" height="105.838" rx="14.5" stroke="#407B6F" stroke-width="11"/>
<rect x="449.457" y="695.728" width="105.838" height="105.838" rx="14.5" fill="#407B6F" stroke="#407B6F" stroke-width="11"/>
<rect x="449.457" y="843.723" width="105.838" height="105.838" rx="14.5" fill="#407B6F" stroke="#407B6F" stroke-width="11"/>
<rect x="449.457" y="991.718" width="105.838" height="105.838" rx="14.5" fill="#407B6F" stroke="#407B6F" stroke-width="11"/>
<rect x="449.457" y="1139.71" width="105.838" height="105.838" rx="14.5" stroke="#407B6F" stroke-width="11"/>
<rect x="614.328" y="695.728" width="105.838" height="105.838" rx="14.5" fill="#407B6F" stroke="#407B6F" stroke-width="11"/>
<rect x="614.328" y="843.723" width="105.838" height="105.838" rx="14.5" fill="#407B6F" stroke="#407B6F" stroke-width="11"/>
<rect x="614.328" y="991.718" width="105.838" height="105.838" rx="14.5" stroke="#407B6F" stroke-width="11"/>
<rect x="614.328" y="1139.71" width="105.838" height="105.838" rx="14.5" stroke="#407B6F" stroke-width="11"/>
<rect x="779.199" y="695.728" width="105.838" height="105.838" rx="14.5" fill="#407B6F" stroke="#407B6F" stroke-width="11"/>
<rect x="779.199" y="843.723" width="105.838" height="105.838" rx="14.5" fill="#407B6F" stroke="#407B6F" stroke-width="11"/>
<rect x="779.199" y="991.718" width="105.838" height="105.838" rx="14.5" stroke="#407B6F" stroke-width="11"/>
<rect x="779.199" y="1139.71" width="105.838" height="105.838" rx="14.5" stroke="#407B6F" stroke-width="11"/>
</svg>
