<svg width="8462" height="1576" viewBox="0 0 8462 1576" fill="none" xmlns="http://www.w3.org/2000/svg">
<g clip-path="url(#clip0_1509_782)">
<rect x="201.5" y="221.883" width="1130.12" height="1130.12" rx="44.5" fill="white" stroke="#407B6F" stroke-width="11"/>
<path d="M246 216.883H1287.12C1314.46 216.884 1336.62 239.045 1336.62 266.383V471.629H196.5V266.383L196.504 265.744C196.846 238.7 218.875 216.883 246 216.883Z" fill="#407B6F" stroke="#407B6F"/>
<path d="M1167.52 465.931L1201.48 151.865C1149.92 221.112 1122.01 329.9 1114.5 375.639C1106.99 421.377 1167.52 465.931 1167.52 465.931Z" fill="#E7B40E"/>
<path d="M1166.24 465.792L1200.2 151.726C1235.77 230.394 1239.77 342.633 1237.33 388.919C1234.89 435.206 1166.24 465.792 1166.24 465.792Z" fill="#E7B40E"/>
<path d="M1010.68 399.004C1010.68 399.004 1104.39 409.137 1186.02 613.987C1186.02 613.987 1164.85 645.159 1144.37 655.606C1091.97 583.318 1009 544.879 1009 544.879L1010.68 399.004Z" fill="#E7B40E"/>
<path d="M1339.09 430.674C1272.04 446.482 1212.48 475.917 1172.68 524.139C1172.68 524.139 1179.08 547.899 1206.26 604.647C1283.54 577.13 1309.55 573.537 1309.55 573.537C1309.55 573.537 1343.2 487.49 1339.09 430.674Z" fill="#E7B40E"/>
<path d="M1321.29 595.301C1254.23 611.109 1194.68 640.544 1154.88 688.766C1154.88 688.766 1161.28 712.526 1188.45 769.274C1265.74 741.757 1291.75 738.164 1291.75 738.164C1291.75 738.164 1325.39 652.117 1321.29 595.301Z" fill="#E7B40E"/>
<path d="M1303.49 759.928C1236.43 775.737 1176.88 805.172 1137.08 853.394C1137.08 853.394 1143.48 877.153 1170.65 933.902C1247.94 906.385 1273.95 902.791 1273.95 902.791C1273.95 902.791 1307.59 816.745 1303.49 759.928Z" fill="#E7B40E"/>
<path d="M993.293 559.837C993.293 559.837 1087.01 569.97 1168.63 774.82C1168.63 774.82 1147.47 805.993 1126.98 816.439C1074.58 744.151 991.613 705.713 991.613 705.713L993.293 559.837Z" fill="#E7B40E"/>
<path d="M975.898 720.666C975.898 720.666 1069.61 730.799 1151.24 935.649C1151.24 935.649 1130.07 966.822 1109.59 977.268C1057.18 904.98 974.218 866.541 974.218 866.541L975.898 720.666Z" fill="#E7B40E"/>
<path d="M1095.75 1152.58C988.035 1138.86 974.761 1003.69 970.108 904.531C1027.86 910.775 1081.7 982.365 1101.4 1017.38C1114.75 990.419 1233.69 895.879 1277.84 937.806C1277.84 937.806 1220.34 1185.27 1095.75 1152.58Z" fill="#E7B40E"/>
<ellipse cx="1073.85" cy="1307.8" rx="15.2853" ry="117.187" transform="rotate(6.17129 1073.85 1307.8)" fill="#E7B40E"/>
<path d="M1028.05 1138.85C989.035 1120.54 932.277 1064.86 919.18 1043.8C917.809 1151.27 999.792 1206.69 1045.23 1240.64C1062.7 1217.34 1064.55 1155.98 1028.05 1138.85Z" fill="#E7B40E"/>
<path d="M1154.86 1152.56C1196.89 1143.02 1264.24 1100.76 1281.54 1082.98C1259.9 1188.27 1167.97 1224.87 1116.32 1248.33C1104.24 1221.83 1115.55 1161.5 1154.86 1152.56Z" fill="#E7B40E"/>
<path d="M283.458 317.197V291.424H385.859V317.197H350.421V409.242H318.896V317.197H283.458ZM397.896 409.242V291.424H448.752C457.496 291.424 465.147 293.015 471.705 296.199C478.264 299.382 483.365 303.965 487.008 309.948C490.651 315.931 492.473 323.103 492.473 331.464C492.473 339.901 490.594 347.015 486.835 352.807C483.115 358.598 477.88 362.97 471.13 365.923C464.419 368.876 456.575 370.353 447.601 370.353H417.226V345.501H441.158C444.916 345.501 448.119 345.04 450.765 344.12C453.45 343.161 455.502 341.646 456.921 339.575C458.378 337.504 459.107 334.8 459.107 331.464C459.107 328.089 458.378 325.346 456.921 323.237C455.502 321.089 453.45 319.517 450.765 318.52C448.119 317.484 444.916 316.966 441.158 316.966H429.882V409.242H397.896ZM466.931 355.165L496.385 409.242H461.638L432.874 355.165H466.931ZM536.713 409.242H502.195L541.085 291.424H584.806L623.695 409.242H589.178L563.406 323.87H562.485L536.713 409.242ZM530.269 362.759H595.161V386.691H530.269V362.759ZM739.5 335.606H707.054C706.824 332.921 706.21 330.486 705.213 328.3C704.254 326.114 702.912 324.234 701.186 322.662C699.499 321.051 697.447 319.824 695.031 318.98C692.615 318.098 689.872 317.657 686.804 317.657C681.435 317.657 676.89 318.961 673.17 321.569C669.488 324.177 666.688 327.916 664.771 332.787C662.892 337.658 661.952 343.506 661.952 350.333C661.952 357.543 662.911 363.584 664.828 368.454C666.784 373.287 669.603 376.93 673.285 379.385C676.967 381.801 681.396 383.009 686.574 383.009C689.527 383.009 692.173 382.645 694.513 381.916C696.852 381.149 698.885 380.056 700.611 378.637C702.337 377.218 703.737 375.511 704.811 373.517C705.923 371.484 706.671 369.202 707.054 366.671L739.5 366.901C739.117 371.887 737.717 376.969 735.301 382.146C732.884 387.285 729.452 392.041 725.003 396.413C720.593 400.747 715.127 404.237 708.607 406.883C702.088 409.53 694.513 410.853 685.884 410.853C675.068 410.853 665.365 408.533 656.774 403.892C648.222 399.251 641.453 392.425 636.467 383.412C631.519 374.399 629.046 363.373 629.046 350.333C629.046 337.216 631.577 326.171 636.639 317.197C641.702 308.184 648.529 301.376 657.119 296.774C665.71 292.133 675.298 289.813 685.884 289.813C693.324 289.813 700.17 290.829 706.421 292.862C712.673 294.895 718.157 297.867 722.874 301.779C727.592 305.653 731.389 310.427 734.265 316.104C737.142 321.78 738.887 328.28 739.5 335.606ZM754.012 409.242V291.424H785.998V339.057H787.608L823.046 291.424H860.324L820.515 343.89L861.245 409.242H823.046L796.583 365.06L785.998 378.867V409.242H754.012Z" fill="white"/>
<rect x="284.586" y="547.732" width="105.838" height="105.838" rx="14.5" fill="#407B6F" stroke="#407B6F" stroke-width="11"/>
<rect x="449.457" y="547.732" width="105.838" height="105.838" rx="14.5" fill="#407B6F" stroke="#407B6F" stroke-width="11"/>
<rect x="614.328" y="547.732" width="105.838" height="105.838" rx="14.5" fill="#407B6F" stroke="#407B6F" stroke-width="11"/>
<rect x="779.199" y="547.732" width="105.838" height="105.838" rx="14.5" fill="#407B6F" stroke="#407B6F" stroke-width="11"/>
<rect x="284.586" y="695.728" width="105.838" height="105.838" rx="14.5" fill="#407B6F" stroke="#407B6F" stroke-width="11"/>
<rect x="284.586" y="843.723" width="105.838" height="105.838" rx="14.5" fill="#407B6F" stroke="#407B6F" stroke-width="11"/>
<rect x="284.586" y="991.718" width="105.838" height="105.838" rx="14.5" fill="#407B6F" stroke="#407B6F" stroke-width="11"/>
<rect x="284.586" y="1139.71" width="105.838" height="105.838" rx="14.5" stroke="#407B6F" stroke-width="11"/>
<rect x="449.457" y="695.728" width="105.838" height="105.838" rx="14.5" fill="#407B6F" stroke="#407B6F" stroke-width="11"/>
<rect x="449.457" y="843.723" width="105.838" height="105.838" rx="14.5" fill="#407B6F" stroke="#407B6F" stroke-width="11"/>
<rect x="449.457" y="991.718" width="105.838" height="105.838" rx="14.5" fill="#407B6F" stroke="#407B6F" stroke-width="11"/>
<rect x="449.457" y="1139.71" width="105.838" height="105.838" rx="14.5" stroke="#407B6F" stroke-width="11"/>
<rect x="614.328" y="695.728" width="105.838" height="105.838" rx="14.5" fill="#407B6F" stroke="#407B6F" stroke-width="11"/>
<rect x="614.328" y="843.723" width="105.838" height="105.838" rx="14.5" fill="#407B6F" stroke="#407B6F" stroke-width="11"/>
<rect x="614.328" y="991.718" width="105.838" height="105.838" rx="14.5" stroke="#407B6F" stroke-width="11"/>
<rect x="614.328" y="1139.71" width="105.838" height="105.838" rx="14.5" stroke="#407B6F" stroke-width="11"/>
<rect x="779.199" y="695.728" width="105.838" height="105.838" rx="14.5" fill="#407B6F" stroke="#407B6F" stroke-width="11"/>
<rect x="779.199" y="843.723" width="105.838" height="105.838" rx="14.5" fill="#407B6F" stroke="#407B6F" stroke-width="11"/>
<rect x="779.199" y="991.718" width="105.838" height="105.838" rx="14.5" stroke="#407B6F" stroke-width="11"/>
<rect x="779.199" y="1139.71" width="105.838" height="105.838" rx="14.5" stroke="#407B6F" stroke-width="11"/>
<path d="M1519.56 1334V394.364H2180.24V599.909H1774.66V761.409H2139.87V966.955H1774.66V1334H1519.56ZM2565.53 1346.85C2489.06 1346.85 2423.6 1331.71 2369.16 1301.42C2314.71 1270.84 2272.96 1228.32 2243.9 1173.88C2214.85 1119.13 2200.32 1055.66 2200.32 983.472C2200.32 911.286 2214.85 847.971 2243.9 793.526C2272.96 738.775 2314.71 696.258 2369.16 665.977C2423.6 635.39 2489.06 620.097 2565.53 620.097C2642 620.097 2707.45 635.39 2761.9 665.977C2816.34 696.258 2858.09 738.775 2887.15 793.526C2916.21 847.971 2930.74 911.286 2930.74 983.472C2930.74 1055.66 2916.21 1119.13 2887.15 1173.88C2858.09 1228.32 2816.34 1270.84 2761.9 1301.42C2707.45 1331.71 2642 1346.85 2565.53 1346.85ZM2567.36 1159.65C2588.77 1159.65 2607.28 1152.47 2622.88 1138.09C2638.48 1123.71 2650.56 1103.22 2659.12 1076.61C2667.69 1050 2671.97 1018.34 2671.97 981.636C2671.97 944.626 2667.69 912.968 2659.12 886.663C2650.56 860.053 2638.48 839.559 2622.88 825.183C2607.28 810.807 2588.77 803.619 2567.36 803.619C2544.73 803.619 2525.31 810.807 2509.09 825.183C2492.88 839.559 2480.5 860.053 2471.93 886.663C2463.37 912.968 2459.08 944.626 2459.08 981.636C2459.08 1018.34 2463.37 1050 2471.93 1076.61C2480.5 1103.22 2492.88 1123.71 2509.09 1138.09C2525.31 1152.47 2544.73 1159.65 2567.36 1159.65ZM3373.03 1346.85C3296.56 1346.85 3231.1 1331.71 3176.66 1301.42C3122.21 1270.84 3080.46 1228.32 3051.4 1173.88C3022.35 1119.13 3007.82 1055.66 3007.82 983.472C3007.82 911.286 3022.35 847.971 3051.4 793.526C3080.46 738.775 3122.21 696.258 3176.66 665.977C3231.1 635.39 3296.56 620.097 3373.03 620.097C3449.5 620.097 3514.95 635.39 3569.4 665.977C3623.84 696.258 3665.59 738.775 3694.65 793.526C3723.71 847.971 3738.24 911.286 3738.24 983.472C3738.24 1055.66 3723.71 1119.13 3694.65 1173.88C3665.59 1228.32 3623.84 1270.84 3569.4 1301.42C3514.95 1331.71 3449.5 1346.85 3373.03 1346.85ZM3374.86 1159.65C3396.27 1159.65 3414.78 1152.47 3430.38 1138.09C3445.98 1123.71 3458.06 1103.22 3466.62 1076.61C3475.19 1050 3479.47 1018.34 3479.47 981.636C3479.47 944.626 3475.19 912.968 3466.62 886.663C3458.06 860.053 3445.98 839.559 3430.38 825.183C3414.78 810.807 3396.27 803.619 3374.86 803.619C3352.23 803.619 3332.81 810.807 3316.59 825.183C3300.38 839.559 3288 860.053 3279.43 886.663C3270.87 912.968 3266.58 944.626 3266.58 981.636C3266.58 1018.34 3270.87 1050 3279.43 1076.61C3288 1103.22 3300.38 1123.71 3316.59 1138.09C3332.81 1152.47 3352.23 1159.65 3374.86 1159.65ZM4096.11 1343.18C4045.94 1343.18 3999.76 1330.02 3957.55 1303.72C3915.64 1277.41 3882 1237.5 3856.61 1183.97C3831.53 1130.44 3818.99 1063 3818.99 981.636C3818.99 896.604 3832.14 827.477 3858.44 774.256C3885.06 721.034 3919.31 682.035 3961.22 657.26C4003.43 632.484 4047.78 620.097 4094.27 620.097C4129.14 620.097 4159.73 626.214 4186.03 638.449C4212.34 650.378 4234.36 666.436 4252.1 686.624C4269.84 706.505 4283.3 728.375 4292.48 752.233H4296.15V394.364H4549.41V1334H4297.98V1218.38H4292.48C4282.69 1242.24 4268.62 1263.65 4250.27 1282.61C4232.22 1301.27 4210.2 1316.11 4184.2 1327.12C4158.5 1337.82 4129.14 1343.18 4096.11 1343.18ZM4189.7 1148.64C4212.95 1148.64 4232.83 1141.91 4249.35 1128.45C4266.17 1114.69 4279.02 1095.42 4287.89 1070.64C4297.06 1045.56 4301.65 1015.89 4301.65 981.636C4301.65 946.767 4297.06 916.945 4287.89 892.169C4279.02 867.088 4266.17 847.971 4249.35 834.818C4232.83 821.36 4212.95 814.631 4189.7 814.631C4166.46 814.631 4146.58 821.36 4130.06 834.818C4113.85 847.971 4101.31 867.088 4092.44 892.169C4083.87 916.945 4079.59 946.767 4079.59 981.636C4079.59 1016.51 4083.87 1046.48 4092.44 1071.56C4101.31 1096.34 4113.85 1115.46 4130.06 1128.91C4146.58 1142.07 4166.46 1148.64 4189.7 1148.64ZM4644.38 599.909V394.364H5461.06V599.909H5178.43V1334H4927.01V599.909H4644.38ZM5487.55 1334V629.273H5733.47V763.244H5740.81C5753.66 713.693 5774 677.447 5801.84 654.507C5829.98 631.567 5862.86 620.097 5900.48 620.097C5911.49 620.097 5922.35 621.014 5933.05 622.849C5944.07 624.379 5954.62 626.673 5964.71 629.732V845.83C5952.17 841.547 5936.73 838.336 5918.37 836.195C5900.02 834.053 5884.27 832.983 5871.12 832.983C5846.34 832.983 5824.01 838.642 5804.13 849.959C5784.55 860.97 5769.11 876.57 5757.79 896.757C5746.47 916.639 5740.81 940.038 5740.81 966.955V1334H5487.55ZM6211.32 1345.01C6166.36 1345.01 6126.59 1337.67 6092.03 1322.99C6057.77 1308 6030.86 1285.37 6011.28 1255.09C5991.71 1224.8 5981.92 1186.26 5981.92 1139.47C5981.92 1100.93 5988.49 1068.04 6001.65 1040.82C6014.8 1013.29 6033.15 990.812 6056.7 973.378C6080.26 955.943 6107.63 942.638 6138.83 933.462C6170.33 924.285 6204.29 918.321 6240.68 915.568C6280.14 912.509 6311.8 908.839 6335.66 904.557C6359.82 899.969 6377.26 893.698 6387.96 885.746C6398.67 877.487 6404.02 866.629 6404.02 853.17V851.335C6404.02 832.983 6396.98 818.913 6382.91 809.125C6368.84 799.337 6350.8 794.443 6328.78 794.443C6304.61 794.443 6284.88 799.796 6269.59 810.501C6254.6 820.901 6245.58 836.959 6242.52 858.676H6009.45C6012.5 815.854 6026.12 776.397 6050.28 740.304C6074.75 703.905 6110.38 674.848 6157.18 653.131C6203.98 631.108 6262.4 620.097 6332.45 620.097C6382.91 620.097 6428.18 626.061 6468.25 637.99C6508.32 649.613 6542.43 665.977 6570.57 687.082C6598.71 707.882 6620.12 732.351 6634.8 760.491C6649.79 788.326 6657.28 818.607 6657.28 851.335V1334H6420.54V1234.9H6415.03C6400.96 1261.2 6383.83 1282.46 6363.64 1298.67C6343.76 1314.88 6320.98 1326.66 6295.28 1334C6269.9 1341.34 6241.91 1345.01 6211.32 1345.01ZM6293.91 1185.35C6313.18 1185.35 6331.22 1181.37 6348.05 1173.42C6365.17 1165.46 6379.09 1153.99 6389.8 1139.01C6400.5 1124.02 6405.86 1105.82 6405.86 1084.41V1025.68C6399.13 1028.43 6391.94 1031.03 6384.29 1033.48C6376.95 1035.93 6369 1038.22 6360.43 1040.36C6352.17 1042.5 6343.3 1044.49 6333.82 1046.33C6324.65 1048.16 6315.01 1049.85 6304.92 1051.38C6285.34 1054.43 6269.28 1059.48 6256.74 1066.52C6244.51 1073.24 6235.33 1081.66 6229.21 1091.75C6223.4 1101.54 6220.5 1112.55 6220.5 1124.78C6220.5 1144.36 6227.38 1159.35 6241.14 1169.75C6254.91 1180.15 6272.5 1185.35 6293.91 1185.35ZM7117.81 1346.85C7041.34 1346.85 6975.88 1331.71 6921.44 1301.42C6866.99 1270.84 6825.24 1228.32 6796.19 1173.88C6767.13 1119.13 6752.6 1055.66 6752.6 983.472C6752.6 911.286 6767.13 847.971 6796.19 793.526C6825.24 738.775 6866.99 696.258 6921.44 665.977C6975.88 635.39 7041.34 620.097 7117.81 620.097C7186.94 620.097 7246.73 632.637 7297.2 657.719C7347.98 682.494 7387.28 717.669 7415.12 763.244C7442.95 808.513 7457.02 861.735 7457.33 922.909H7222.42C7219.05 885.899 7208.35 857.758 7190.3 838.489C7172.56 818.913 7149.62 809.125 7121.48 809.125C7099.46 809.125 7080.19 815.548 7063.67 828.395C7047.15 840.936 7034.31 860.053 7025.13 885.746C7015.95 911.133 7011.37 943.097 7011.37 981.636C7011.37 1020.18 7015.95 1052.29 7025.13 1077.99C7034.31 1103.37 7047.15 1122.49 7063.67 1135.34C7080.19 1147.88 7099.46 1154.15 7121.48 1154.15C7140.14 1154.15 7156.65 1149.87 7171.03 1141.3C7185.41 1132.43 7197.03 1119.58 7205.9 1102.76C7215.08 1085.63 7220.58 1064.83 7222.42 1040.36H7457.33C7456.41 1102.46 7442.19 1156.59 7414.66 1202.78C7387.13 1248.66 7348.13 1284.14 7297.66 1309.22C7247.5 1334.31 7187.55 1346.85 7117.81 1346.85ZM7789.39 1166.99L7791.22 866.017H7824.26L7994.93 629.273H8279.39L7993.1 998.153H7921.52L7789.39 1166.99ZM7561.82 1334V394.364H7815.08V1334H7561.82ZM7996.77 1334L7835.27 1055.05L8000.44 875.193L8286.73 1334H7996.77Z" fill="white"/>
</g>
<defs>
<clipPath id="clip0_1509_782">
<rect width="8462" height="1576" fill="white"/>
</clipPath>
</defs>
</svg>
