<svg width="708" height="800" viewBox="0 0 708 800" fill="none" xmlns="http://www.w3.org/2000/svg">
<path d="M694.183 327.131C679.417 278.623 652.597 240.856 616.614 217.911C575.98 191.998 539.258 186.573 503.132 188.707C507.229 183.203 511.101 177.403 514.715 171.27C541.388 126.003 548.607 75.1092 552.485 47.7671C552.915 44.739 553.299 42.0281 553.663 39.6827L559.846 1.52588e-05L521.197 10.9328C518.915 11.5781 516.269 12.2859 513.318 13.0797C486.646 20.2344 436.999 33.5515 395.288 65.503C370.526 84.4717 352.291 107.389 340.823 133.601C307.903 87.5702 267.62 70.6327 265.095 69.6077L245.704 117.344C246.289 117.581 297.142 138.993 320.518 205.545C301.713 203.629 283.928 200.436 266.524 197.304C209.237 187 155.125 177.265 91.3858 217.912C55.4046 240.856 28.5812 278.624 13.8172 327.132C0.91406 369.524 -2.94062 420.255 2.66874 473.843C9.75154 541.494 31.3171 609.774 63.3967 666.113C99.2795 729.13 145.328 772.603 196.564 791.834C212.142 797.681 226.035 799.998 238.59 799.998C266.224 799.997 287.335 788.752 305.403 779.125C321.715 770.433 335.802 762.927 354.001 762.927C372.199 762.927 386.287 770.434 402.599 779.125C428.876 793.125 461.577 810.552 511.44 791.834C562.675 772.605 608.724 729.13 644.607 666.113C676.686 609.777 698.253 541.494 705.335 473.843C710.941 420.255 707.086 369.523 694.183 327.131ZM426.621 106.404C448.513 89.6342 474.494 78.867 496.365 71.678C491.872 94.2592 484.327 121.351 470.324 145.115C449.366 180.681 418.993 200.57 377.871 205.482C377.779 164.07 393.851 131.508 426.621 106.404ZM654.088 468.477C647.732 529.197 628.461 590.333 599.83 640.614C569.979 693.036 533.152 728.645 493.332 743.591C465.26 754.13 449.969 745.981 426.827 733.649C408.223 723.736 385.068 711.397 354.001 711.397C322.934 711.397 299.779 723.735 281.174 733.649C258.029 745.98 242.742 754.125 214.67 743.591C174.85 728.645 138.023 693.036 108.172 640.614C79.5405 590.332 60.2702 529.197 53.914 468.477C43.7421 371.295 68.1045 293.865 119.09 261.354C165.84 231.543 204.246 238.454 257.406 248.015C285.635 253.093 317.631 258.85 354.004 258.85C390.377 258.85 422.373 253.093 450.602 248.015C503.763 238.453 542.168 231.545 588.918 261.354C639.896 293.865 664.261 371.296 654.088 468.477Z" fill="white"/>
</svg>
